<svg width="1021" height="256" viewBox="0 0 1021 256" fill="none" xmlns="http://www.w3.org/2000/svg">
<g filter="url(#filter0_d_2_50)">
<path d="M18.4326 134.988L81.3715 113.334L90.8273 136.882L88.6486 137.632C82.4556 130.648 76.9896 126.302 72.2506 124.594C67.4839 122.804 61.5098 123.145 54.3283 125.616L50.092 127.074L62.9597 164.474L67.075 163.058C70.8675 161.753 73.5689 159.244 75.1794 155.532C76.762 151.739 77.245 147.241 76.6283 142.038L78.4438 141.414L90.7702 177.241L88.7126 177.949C85.178 172.396 81.7158 168.76 78.326 167.038C75.0168 165.289 71.224 165.15 66.9474 166.621L64.0425 167.621L77.41 206.474L82.0093 204.891C89.4329 202.337 94.9634 197.953 98.6007 191.738C102.319 185.495 103.952 178.571 103.501 170.965L105.922 170.132L114.032 196.852L47.5828 219.714L46.6667 217.051L53.8078 214.594L26.4899 135.194L19.3487 137.651L18.4326 134.988Z" fill="#111111"/>
<path d="M109.573 136.845L108.955 134.625L144.715 124.668L145.333 126.887L138.674 128.742L163.514 165.938L166.419 121.016L158.157 123.317L157.539 121.097L174.926 116.256L175.544 118.475L169.378 120.192L164.826 193.076C164.265 201.559 162.722 207.791 160.199 211.771C157.698 215.833 154.023 218.539 149.172 219.89C144.322 221.24 140.191 221.195 136.778 219.754C133.365 218.312 131.177 215.865 130.216 212.413C129.255 208.96 129.427 206.078 130.731 203.766C132.036 201.453 134.169 199.885 137.128 199.061C143.951 197.161 148.152 199.048 149.732 204.72C150.075 205.953 150.241 207.501 150.228 209.365L145.912 210.567C145.781 212.641 146.134 214.225 146.97 215.321C147.807 216.417 149.088 216.724 150.815 216.244C154.185 215.305 156.716 212.785 158.408 208.682C160.123 204.661 161.223 198.907 161.707 191.42L162.291 183.02L151.44 186.041L114.629 135.437L109.573 136.845Z" fill="#111111"/>
<path d="M220.041 137.731L223.668 136.939L221.564 127.31C219.833 119.39 218.217 114.197 216.717 111.729C215.283 109.16 213.315 108.149 210.814 108.696C209.313 109.024 208.029 109.741 206.96 110.848C205.957 111.853 205.61 113.065 205.92 114.482C206.212 115.816 206.762 117.137 207.572 118.444L210.698 117.761C211.748 119.366 212.546 121.419 213.093 123.92C213.621 126.338 213.043 128.691 211.36 130.981C209.658 133.187 207.224 134.636 204.056 135.328C196.886 136.895 192.545 134.219 191.033 127.299C188.793 117.045 196.384 110.015 213.807 106.207C223.728 104.039 230.938 104.254 235.436 106.853C239.999 109.349 243.265 115.099 245.233 124.103L250.78 149.488C251.727 153.823 253.41 155.726 255.827 155.198C258.662 154.578 259.391 149.921 258.015 141.225L259.918 140.94C261.187 148.349 260.914 153.693 259.098 156.973C257.281 160.252 253.622 162.493 248.12 163.695C238.116 165.881 231.689 164.054 228.841 158.213C228.449 161.617 227.334 164.307 225.494 166.281C223.654 168.255 220.651 169.698 216.482 170.609C204.144 173.305 196.873 169.61 194.668 159.522C193.375 153.603 194.826 149.05 199.021 145.862C203.281 142.573 210.287 139.863 220.041 137.731ZM218.4 154.205C219.348 158.54 220.166 161.287 220.857 162.447C221.63 163.588 222.642 164.022 223.893 163.749C225.226 163.457 226.207 162.151 226.836 159.83C227.529 157.407 227.466 154.32 226.646 150.569L224.105 138.939L223.23 139.131C218.061 140.26 216.305 144.618 217.963 152.204L218.4 154.205Z" fill="#111111"/>
<path d="M260.71 97.4793L291.189 92.718L293.006 104.353C293.749 100.264 295.328 96.8217 297.741 94.0264C300.155 91.231 304.186 89.3921 309.834 88.5097C322.903 86.4682 330.537 92.4874 332.736 106.567L338.683 144.634L345.765 143.527L346.12 145.804L310.33 151.395L309.975 149.118L315.16 148.308L308.739 107.207C307.949 102.148 307.105 98.9549 306.206 97.627C305.295 96.2147 303.954 95.6469 302.183 95.9235C299.485 96.345 297.359 98.4909 295.804 102.361C294.334 106.218 293.994 110.676 294.784 115.735L300.237 150.64L305.675 149.79L306.031 152.066L270.114 157.677L269.759 155.401L276.714 154.314L268.021 98.6691L261.066 99.7557L260.71 97.4793Z" fill="#111111"/>
<path d="M433.172 135.863L422 108.902L396.712 110.597L388.728 138.843L398.307 138.2L398.469 140.627L378.929 141.937L378.767 139.511L384.769 139.108L411.453 49.1855L421.925 48.4833L459.992 134.064L465.867 133.67L466.03 136.097L424.268 138.897L424.105 136.471L433.172 135.863ZM407.435 73.4446L397.674 107.71L420.79 106.161L407.435 73.4446Z" fill="#111111"/>
<path d="M472.536 75.1386L503.384 75.1386V86.9146C504.749 82.9893 506.84 79.832 509.656 77.4426C512.472 75.0533 516.739 73.8586 522.456 73.8586C535.683 73.8586 542.296 80.984 542.296 95.2346V133.763H549.464V136.067L513.24 136.067V133.763H518.488V92.1626C518.488 87.0426 518.147 83.7573 517.464 82.3066C516.781 80.7706 515.544 80.0026 513.752 80.0026C511.021 80.0026 508.589 81.7946 506.456 85.3786C504.408 88.9626 503.384 93.3147 503.384 98.4347V133.763H508.888V136.067H472.536V133.763H479.576L479.576 77.4426H472.536V75.1386Z" fill="#111111"/>
<path d="M582.951 111.486C582.395 120.429 582.493 126.42 583.245 129.459C584.002 132.413 585.615 133.967 588.085 134.12C590.64 134.279 592.881 133.307 594.807 131.204C596.818 129.106 597.959 125.885 598.229 121.541L599.959 93.691C600.187 90.0287 599.656 86.875 598.367 84.23C597.078 81.5849 595.028 80.1751 592.218 80.0004C589.407 79.8258 587.374 81.5804 586.119 85.2644C584.864 88.9483 583.946 95.4746 583.364 104.843L582.951 111.486ZM598.81 139.019L597.96 129.989C594.641 136.622 588.553 139.664 579.695 139.114C572.371 138.658 566.828 135.664 563.068 130.129C559.394 124.6 557.882 116.597 558.533 106.122C559.85 84.9145 568.941 74.8349 585.805 75.8828C593.299 76.3485 598.11 78.7421 600.235 83.0636L602.577 45.3763L594.784 44.892L594.927 42.5925L626.865 44.5771L621.054 138.093L627.314 138.482L627.171 140.781L598.81 139.019Z" fill="#111111"/>
<path d="M668.63 146.901C657.7 145.592 649.817 141.811 644.98 135.559C640.237 129.233 638.465 121.071 639.662 111.073C640.87 100.99 644.844 93.6456 651.584 89.0386C658.409 84.4417 666.566 82.7117 676.055 83.8486C695.288 86.1527 703.366 96.918 700.29 116.145L664.45 111.851L663.856 116.807C662.861 125.111 663.169 131.507 664.78 135.998C666.391 140.488 669.822 143.047 675.076 143.677C684.904 144.854 691.973 140.373 696.281 130.232L698.523 130.887C696.183 136.795 692.691 141.189 688.049 144.071C683.491 146.963 677.018 147.906 668.63 146.901ZM664.881 109.324L677.972 110.893L678.718 104.665C679.54 97.8022 679.675 93.0914 679.122 90.5328C678.664 87.8996 677.206 86.4358 674.749 86.1415C672.377 85.8573 670.435 86.9997 668.924 89.5689C667.508 92.0635 666.409 96.5728 665.628 103.097L664.881 109.324Z" fill="#111111"/>
<path d="M756.991 100.996C753.88 100.456 750.797 102 747.743 105.627C744.688 109.254 742.679 113.842 741.716 119.391L735.848 153.189L744.802 154.744L744.408 157.014L705.061 150.183L705.455 147.913L712.391 149.117L722.024 93.6268L715.088 92.4227L715.482 90.1526L745.875 95.429L743.774 107.536C745.611 103.438 748.282 100.524 751.787 98.7938C755.307 96.9797 759.042 96.4157 762.994 97.1017C766.945 97.7877 769.943 99.4773 771.987 102.171C774.13 104.795 774.844 108.166 774.129 112.286C773.428 116.322 771.963 119.272 769.734 121.137C767.505 123.002 764.456 123.598 760.589 122.927C756.805 122.27 754.208 120.52 752.796 117.677C751.468 114.848 751.864 111.322 753.983 107.1L758.523 107.888C761.369 103.965 760.858 101.668 756.991 100.996Z" fill="#111111"/>
<path d="M774.879 164.016L779.897 141.66L781.395 141.997C781.934 149.726 783.709 155.459 786.718 159.196C789.727 162.932 793.98 165.417 799.475 166.651C807.968 168.557 812.822 166.804 814.036 161.392C814.56 159.06 813.911 157.078 812.091 155.446C809.255 152.885 805.41 150.535 800.555 148.396C795.23 145.627 790.932 142.563 787.663 139.206C783.756 135.18 782.532 129.92 783.989 123.426C785.447 116.932 788.604 112.218 793.46 109.285C798.335 106.269 804.103 105.508 810.764 107.003C814.844 107.919 818.834 109.82 822.733 112.707C824.166 113.728 825.298 114.332 826.131 114.519C826.964 114.706 827.737 114.573 828.45 114.121C829.164 113.669 830.115 112.745 831.302 111.35L832.676 111.659L828.387 130.767L826.889 130.431C825.072 118.654 819.709 111.765 810.8 109.766C806.886 108.887 803.813 108.941 801.581 109.927C799.367 110.829 798.026 112.321 797.559 114.403C797.279 115.652 797.346 116.716 797.76 117.596C798.194 118.393 798.539 118.996 798.798 119.403C799.056 119.811 799.513 120.307 800.169 120.892C800.844 121.393 801.403 121.825 801.846 122.187C802.308 122.465 803.002 122.883 803.926 123.44C804.934 124.016 805.678 124.402 806.159 124.598C811.503 127.284 815.303 129.448 817.557 131.091C819.831 132.651 821.924 134.433 823.835 136.436C827.705 140.628 828.845 146.262 827.257 153.34C825.687 160.334 822.409 165.195 817.424 167.924C812.457 170.57 806.352 171.08 799.108 169.454C793.946 168.296 789.221 165.967 784.934 162.469C784.084 161.578 783.368 161.068 782.785 160.937C780.954 160.526 778.818 161.664 776.378 164.353L774.879 164.016Z" fill="#111111"/>
<path d="M877.676 162.129L880.598 151.649C882.821 143.675 883.985 137.754 884.089 133.886C884.299 129.958 882.842 127.558 879.718 126.687C877.91 126.183 876.281 126.304 874.833 127.052C873.489 127.741 872.238 129.208 871.08 131.454C869.309 134.947 867.369 140.474 865.261 148.036L862.579 157.653C860.081 166.613 858.826 172.066 858.815 174.011C858.886 175.98 859.049 177.62 859.303 178.931C859.657 181.156 861.149 182.635 863.78 183.369C866.986 184.263 869.597 182.998 871.615 179.574C873.088 177.15 875.108 171.335 877.676 162.129ZM862.914 185.519C852.64 182.654 845.605 177.858 841.812 171.13C838.018 164.403 837.485 156.148 840.213 146.367C842.963 136.503 847.866 129.72 854.923 126.018C862.084 122.257 870.761 121.797 880.954 124.64C891.146 127.482 898.062 132.068 901.701 138.398C905.362 144.646 905.795 152.784 902.999 162.812C897.154 183.772 883.793 191.341 862.914 185.519Z" fill="#111111"/>
<path d="M922.552 137.765L951.718 147.812L947.883 158.946C950.452 155.679 953.457 153.375 956.898 152.033C960.339 150.691 964.762 150.951 970.167 152.814C982.673 157.121 986.605 166.012 981.964 179.486L969.415 215.913L976.192 218.248L975.442 220.426L941.193 208.628L941.944 206.45L946.905 208.159L960.454 168.827C962.122 163.986 962.869 160.769 962.696 159.175C962.551 157.5 961.631 156.371 959.937 155.788C957.355 154.898 954.472 155.801 951.288 158.494C948.184 161.216 945.799 164.997 944.131 169.838L932.625 203.24L937.829 205.032L937.078 207.211L902.709 195.371L903.459 193.193L910.115 195.486L928.458 142.236L921.802 139.943L922.552 137.765Z" fill="#111111"/>
</g>
<defs>
<filter id="filter0_d_2_50" x="14.4326" y="40.584" width="985.27" height="191.666" filterUnits="userSpaceOnUse" color-interpolation-filters="sRGB">
<feFlood flood-opacity="0" result="BackgroundImageFix"/>
<feColorMatrix in="SourceAlpha" type="matrix" values="0 0 0 0 0 0 0 0 0 0 0 0 0 0 0 0 0 0 127 0" result="hardAlpha"/>
<feOffset dy="4"/>
<feGaussianBlur stdDeviation="2"/>
<feComposite in2="hardAlpha" operator="out"/>
<feColorMatrix type="matrix" values="0 0 0 0 0 0 0 0 0 0 0 0 0 0 0 0 0 0 0.25 0"/>
<feBlend mode="normal" in2="BackgroundImageFix" result="effect1_dropShadow_2_50"/>
<feBlend mode="normal" in="SourceGraphic" in2="effect1_dropShadow_2_50" result="shape"/>
</filter>
</defs>
</svg>
