<svg width="215" height="115" viewBox="0 0 215 115" fill="none" xmlns="http://www.w3.org/2000/svg">
<path d="M49.9781 42V0.75H66.4781V8.71875H58.3688V16.7578H66.15V24.5156H58.3688V33.9609H67.0172V42H49.9781ZM79.5516 42V28.4297L72.9656 0.75H81.1453L83.4422 14.7188L85.7391 0.75H93.8953L87.3328 28.4297V42H79.5516ZM98.5312 42L102.516 0.75H116.508L120.422 42H112.617L112.031 35.3438H107.062L106.547 42H98.5312ZM107.648 28.7578H111.398L109.594 7.78125H109.219L107.648 28.7578ZM127.753 42V0.75H136.238L140.034 20.5078V0.75H148.003V42H139.941L135.816 21.375V42H127.753ZM0.703125 114L4.6875 72.75H18.6797L22.5938 114H14.7891L14.2031 107.344H9.23438L8.71875 114H0.703125ZM9.82031 100.758H13.5703L11.7656 79.7813H11.3906L9.82031 100.758ZM29.925 114V72.75H38.4094L42.2062 92.5078V72.75H50.175V114H42.1125L37.9875 93.375V114H29.925ZM58.6312 114V72.75H69.975C72.9437 72.75 75.1781 73.5781 76.6781 75.2344C78.1781 76.875 78.9281 79.2813 78.9281 82.4531V101.766C78.9281 105.672 78.2406 108.688 76.8656 110.813C75.5062 112.938 73.1156 114 69.6937 114H58.6312ZM66.9281 106.711H68.3578C69.8734 106.711 70.6312 105.977 70.6312 104.508V83.2266C70.6312 81.8516 70.4437 80.9688 70.0687 80.5781C69.7094 80.1719 68.9672 79.9688 67.8422 79.9688H66.9281V106.711ZM87.1031 114V72.75H103.603V80.7188H95.4938V88.7578H103.275V96.5156H95.4938V105.961H104.142V114H87.1031ZM111.684 114V72.75H124.341C126.45 72.75 128.044 73.2344 129.122 74.2031C130.2 75.1563 130.919 76.5 131.278 78.2344C131.653 79.9531 131.841 81.9766 131.841 84.3047C131.841 86.5547 131.552 88.3516 130.973 89.6953C130.411 91.0391 129.341 91.9688 127.762 92.4844C129.059 92.75 129.966 93.3984 130.481 94.4297C131.012 95.4453 131.278 96.7656 131.278 98.3906V114H123.145V97.8516C123.145 96.6484 122.895 95.9063 122.395 95.625C121.911 95.3281 121.122 95.1797 120.028 95.1797V114H111.684ZM120.075 88.0313H122.067C123.208 88.0313 123.778 86.7891 123.778 84.3047C123.778 82.6953 123.653 81.6406 123.403 81.1406C123.153 80.6406 122.684 80.3906 121.997 80.3906H120.075V88.0313ZM149.156 114.375C145.391 114.375 142.672 113.438 141 111.563C139.344 109.688 138.516 106.703 138.516 102.609V98.5781H146.672V103.734C146.672 104.688 146.812 105.438 147.094 105.984C147.391 106.516 147.898 106.781 148.617 106.781C149.367 106.781 149.883 106.563 150.164 106.125C150.461 105.688 150.609 104.969 150.609 103.969C150.609 102.703 150.484 101.648 150.234 100.805C149.984 99.9453 149.547 99.1328 148.922 98.3672C148.312 97.5859 147.461 96.6797 146.367 95.6484L142.664 92.1328C139.898 89.5234 138.516 86.5391 138.516 83.1797C138.516 79.6641 139.328 76.9844 140.953 75.1406C142.594 73.2969 144.961 72.375 148.055 72.375C151.836 72.375 154.516 73.3828 156.094 75.3984C157.688 77.4141 158.484 80.4766 158.484 84.5859H150.094V81.75C150.094 81.1875 149.93 80.75 149.602 80.4375C149.289 80.125 148.859 79.9688 148.312 79.9688C147.656 79.9688 147.172 80.1563 146.859 80.5313C146.562 80.8906 146.414 81.3594 146.414 81.9375C146.414 82.5156 146.57 83.1406 146.883 83.8125C147.195 84.4844 147.812 85.2578 148.734 86.1328L153.492 90.7031C154.445 91.6094 155.32 92.5703 156.117 93.5859C156.914 94.5859 157.555 95.7578 158.039 97.1016C158.523 98.4297 158.766 100.055 158.766 101.977C158.766 105.852 158.047 108.891 156.609 111.094C155.188 113.281 152.703 114.375 149.156 114.375ZM176.175 114.375C172.878 114.375 170.355 113.383 168.605 111.398C166.87 109.398 166.003 106.516 166.003 102.75V83.1563C166.003 79.625 166.863 76.9453 168.581 75.1172C170.316 73.2891 172.847 72.375 176.175 72.375C179.503 72.375 182.027 73.2891 183.745 75.1172C185.48 76.9453 186.347 79.625 186.347 83.1563V102.75C186.347 106.516 185.472 109.398 183.722 111.398C181.988 113.383 179.472 114.375 176.175 114.375ZM176.245 106.781C177.495 106.781 178.12 105.57 178.12 103.148V83.0156C178.12 80.9844 177.511 79.9688 176.292 79.9688C174.917 79.9688 174.23 81.0078 174.23 83.0859V103.195C174.23 104.477 174.386 105.398 174.698 105.961C175.011 106.508 175.527 106.781 176.245 106.781ZM194.475 114V72.75H202.959L206.756 92.5078V72.75H214.725V114H206.663L202.538 93.375V114H194.475Z" fill="black"/>
</svg>
