<svg width="370" height="268" viewBox="0 0 370 268" fill="none" xmlns="http://www.w3.org/2000/svg">
<path d="M220.266 134.001L158.647 169.212V98.7898L220.266 134.001Z" fill="black" stroke="black" stroke-width="17.4893" stroke-linecap="round" stroke-linejoin="round"/>
<path d="M9 146.457V121.543C9 70.5691 9 45.0823 24.9416 28.6833C40.8834 12.2843 65.9813 11.5745 116.177 10.1547C139.963 9.48204 164.259 9 185.055 9C205.851 9 230.148 9.48204 253.933 10.1547C304.128 11.5745 329.227 12.2843 345.168 28.6833C361.11 45.0823 361.11 70.5691 361.11 121.543V146.457C361.11 197.43 361.11 222.917 345.168 239.315C329.227 255.715 304.13 256.424 253.935 257.845C230.148 258.518 205.851 259 185.055 259C164.259 259 139.962 258.518 116.175 257.845C65.9804 256.424 40.883 255.715 24.9414 239.315C9 222.917 9 197.43 9 146.457Z" stroke="black" stroke-width="17.4893"/>
</svg>
